<?xml version="1.0" encoding="utf-8"?>
<!-- Generator: Adobe Illustrator 19.2.1, SVG Export Plug-In . SVG Version: 6.00 Build 0)  -->
<svg version="1.1" id="layer" xmlns="http://www.w3.org/2000/svg" xmlns:xlink="http://www.w3.org/1999/xlink" x="0px" y="0px"
	 viewBox="0 0 652 652" style="enable-background:new 0 0 652 652;" xml:space="preserve">
<style type="text/css">
	.st0{fill:#FFFFFF;}
</style>
<g>
	<path class="st0" d="M247.1,375c-0.8,2.5,1.6,5.2,4.1,4.7c4.5-0.8,4.3-7.5-1-7.4C248.6,372.9,247.6,373.3,247.1,375 M595.3,376.8
		c-0.7,2.5,1.6,5.2,3.9,4.8c5-0.7,4.8-7.8-0.6-7.7C596.9,374.7,595.8,374.9,595.3,376.8 M551.5,394.9c0-2.8-0.4-9.2,0.7-10.7
		c1.5-2,8.1-1.4,11.4-1.9c0.7,0,1.5-0.1,2.2-0.1c4.3,0,3.8,2.7,3.7,6.7c0,1.7,0,3.4,0,5.1c0,1.2-0.1,2.5-0.1,3.7
		c-0.5,3.4,0,7.1-0.8,10.1c-0.7,2.9-2.1,5.1-3.7,7.1c-1.2,1.6-3.5,3.7-6.6,2.9C550.2,415.8,551.5,405,551.5,394.9 M497.1,402.4
		c-1.6,7.9-0.8,17.1,4,20.9c0.9,0.8,2,1.5,3.3,1.9c5.4,1.9,9-1.2,12.1-3.5c1.5-1.1,3.5-3,6.4-2.2c4,1,5.3,5,9.7,5.9
		c2.3,0.5,4.2-0.5,5.5-1.4c2.4-1.5,4.3-3.3,7.6-3.8c1.8-0.3,3.4,0.6,4.4,1.1c2.5,1.4,4.6,3.3,7.9,3.8c1.9,0.3,3.5-0.5,4.5-1.1
		c2.4-1.4,4.4-3.5,7.6-4.1c1.7-0.3,3.1,0.5,4,1.1c2.3,1.4,3.9,3.3,6.8,4c5.3,1.2,10.5-3.5,14-5c1.5-0.7,3.6-0.7,4.9,0.1
		c1.4,0.8,2.4,1.9,3.7,2.9c2.3,1.6,6.6,2.9,10.6,1.9c1.2-0.3,2.3-0.8,3.3-1.3c0.9-0.5,3.8-2.3,3.4-3.8c-0.1-0.1-0.1-0.2-0.2-0.3
		c-1.3-0.3-4.1,0.8-5.7,1c-5.2,0.9-9-3.1-10.4-6.3c-1-2.3-1.6-4.8-2.1-7.6c-0.2-1.4-0.3-2.8-0.5-4.3c-0.5-3.1,0.2-6.2-2.8-6.8
		c-4.4-0.9-3.4,6.4-4,9.7c-1.1,6.3-2.3,9.9-7.6,12c-2.8,1.1-5.8,1.2-8-0.5c-3.8-3-3.6-8.9-3.6-15.6c0-3.1-0.1-6.2-0.1-9.3
		c0-2.6-0.6-7.8,0.5-9.5c1.4-2.2,6-0.9,8.5-2c0.7-0.3,1.7-1,1.4-2.2c-0.8-3.5-7.1-1-9.5-2.8c-2.9-2.3,0.9-11.3-3.1-12.9
		c-1.3-0.5-2.5,0.3-3,1c-1.3,1.7-0.9,5.2-0.9,8.1c0,1.2,0,2.3-0.3,3.1c-0.3,0.6-0.9,1.2-1.5,1.5c-1,0.4-2.3,0.1-3.6,0.4
		c-2.1,0.1-4.2,0.1-6.2,0.2c-1.3,0-2.9,0.2-4-0.1c-5.2-1.3,0.9-14.1-5.6-14.2c-1.2,0.5-1.9,0.8-2.3,2c-1,2.9,0.5,7.9-0.7,10.7
		c-1.2,2.9-6.4,0.9-8.3,3.7c-0.3,0.4-0.6,1-0.5,1.8c0.8,4.1,6.8,1.4,8.5,4.1c1,1.7,0.5,6.6,0.5,9.3c0,8.2-0.2,14-3.3,19.1
		c-0.7,1.1-1.4,2.3-2.4,3c-0.8,0.7-1.7,1.3-2.7,1.7c-1.2,0.5-3.2,0.7-4.5,0.2c-5-1.8-4.7-8.3-5.7-14.1c-0.5-3.1,0.7-7.8-2.4-8.3
		c-3.6-0.6-3.9,6.1-4.5,8.9c-1.4,6.3-3.1,12.4-9.4,13.7c-3.9,0.8-6-2.1-6.7-4.9c-0.3-1.4-0.2-2.8-0.4-4.4c-0.3-2.1-0.1-4.8,0.2-6.8
		c0.5-2.9-0.6-7.2-3.5-6.7C497.7,396.2,497.6,399.9,497.1,402.4 M406.6,358.4c0.3,1.6,2.9,0.9,4.1,0.6c3.5-0.9,7.8-2.8,8.7,1.9
		c0.3,8.2,0.6,16.5,0.9,24.7c0.1,2.5,0.1,4.9,0.2,7.4c0.1,3.2,0.1,6.5,0.2,9.7v2.9c0.6,3.5-0.2,9.2,2.5,10.3
		c1.6,0.7,2.5-0.7,2.9-1.7c1-2.2,0.9-5.2,1.4-8.1c0-0.8,0.1-1.7,0.1-2.6c0.1-2.8,0.1-5.6,0.2-8.4c0.1-5.8,0.2-11.6,0.3-17.4
		c0-2.9,0.1-5.8,0.1-8.7v-2.3c0-1.8,0-3.5,0-5.3c0-1.2-0.1-2.4,0.1-3.4c0.2-1,0.7-1.7,1.5-2.2c1.8-1.1,9.7-1.5,12.7-1
		c2.4,0.4,4.7,0.5,6.9,1.1c7.9,2,14.7,5.7,19.1,11.3c2.4,3,4.5,6.5,5.8,10.7c0.7,2.3,1.1,4.8,1.5,7.5c1,5.8-0.4,13.3-1.9,17.4
		c-5.1,13-14.7,19.1-29.6,22.4c-2.3,0.5-4.8,0.5-7.3,0.9c-1.1,0-2.1,0.1-3.2,0.1h-3.4c-1.4-0.1-2.8-0.1-4.2-0.2
		c-1.7-0.2-3.4-0.3-5-0.4c-2.3-0.3-4.5-0.6-6.8-0.9c-1.2-0.2-2.8-0.7-4.1-0.3c0,0.1-0.1,0.3-0.1,0.4c0.5,1.1,2.2,1.4,3.3,1.8
		c3.1,1.2,6.5,1.9,10.1,2.7c17.9,3.9,37.3-1.4,47.8-8.8c7.5-5.3,13-12,15.6-22.2c0.6-2.5,1.4-7.2,0.9-10.5c0-0.8-0.1-1.6-0.1-2.3
		c-0.4-2.2-0.4-4.3-0.9-6.3c-1-3.8-2.2-7.4-3.9-10.4c-7.5-12.7-20.8-20.2-41.3-19.9c-1,0.1-2,0.1-3,0.2c-1.9,0.2-3.7,0.5-5.6,0.7
		c-6.7,1.3-13.4,2.3-19.2,4.6c-2,0.8-3.9,1.4-5.7,2.3C407.5,356.9,406.4,357.5,406.6,358.4 M193.4,413.7c4.1-0.1,6.3,6.6,1.9,7.8
		c-3,0.8-7.8-0.9-7-4C188.9,415.2,191.2,414.6,193.4,413.7 M224.6,413c0.7,0,1.3,0,1.8,0.2c1.6,0.6,3.8,3.3,2.7,5.7
		c-0.5,1.2-1.9,1.8-3.3,2c-2.9,0.5-7.3-1.6-6-4.6C220.5,414.3,222.6,413.9,224.6,413 M114.3,403.4c-2.8,6.4,1.2,14.2,4.9,17.1
		c4.7,3.7,12.3,5.7,20.1,3.4c3.9-1.2,6.8-3.3,11-4c1.1-0.2,2.2,0.1,3,0.3c3.8,1.2,7.4,5.8,12.6,4.2c1.7-0.5,3.2-1.4,4.5-2.3
		c3.4-2.4,6.3-6,8.1-10.1c1.1-2.5,2-5.8,3.5-8.1c0.9-1.4,2.7-2.2,4.6-1.2c0.8,0.4,1.5,1,2.1,1.6c0.6,0.6,1.3,1.1,1.6,1.9
		c0.5,1,0.2,2.2-0.4,2.9c-0.6,0.8-1.7,1.3-2.4,1.9c-1.5,1.1-3,2.4-4.1,3.9c-2.6,3.4-2.1,6.7,1.4,8.7c5.5,3.2,18.5,3.8,20.1-3.1
		c0.6-2.5-0.6-5.1-1.4-6.8c-0.4-0.8-1.2-2-0.8-3.4c0.4-1.5,1.7-2.2,2.8-3c2.3-1.9,4.5-3.7,6.8-5.6c0.8-0.5,2.3-0.9,3.5-0.5
		c1,0.4,1.8,1.1,2.6,1.7c0.9,0.7,3.2,2.4,2.8,4.2c-0.3,1.2-1.3,1.9-2.2,2.5c-2.4,1.7-8.9,7-5.3,11.1c0.7,0.7,1.6,1.4,2.4,1.9
		c1.6,0.9,3.6,1.6,5.7,2c6.3,1.4,13.4-0.3,14.6-5.2c1.2-4.8-4.9-8.6-0.2-11.6c0.8-0.4,1.6-0.8,2.4-1.3c1-0.5,2.4-1.4,4.1-1
		c3,0.6,3.3,3.9,4.3,6.5c1.6,4,4.3,11,8.4,12.2c2.1,0.7,4-0.6,5.1-1.5c3.3-2.5,5.5-6.3,7.9-9.6c0.8-1.1,2.5-3.8,4.7-3.4
		c3.6,0.7,3.9,7.8,4.9,11.2c0.4,1.4,0.9,3.1,2.4,3.4c2,0.5,3.4-2.4,3.9-3.7c1.6-3.6,3.7-11.7,7.4-12.7c1.7-0.5,2.9,0.6,3.5,1.5
		c1.9,2.9,1.4,8.6,2.6,12.1c0.5,1.3,1.5,3.4,3.6,3c2.4-0.5,3-3.9,3.7-6.1c1.2-3.8,2.5-8.4,6.3-9.6c2.8-0.8,3.9,1.8,4.5,3.5
		c1.6,4.2,2.3,10.2,6.5,11.9c2.1,0.9,4.7,0.1,6.2-0.7c3.6-1.9,5.6-5.2,10.3-6c1.3-0.2,2.5,0.4,3.3,0.8c2.3,1.1,4.1,2.8,6.3,4.1
		c6.2,3.6,14.6,2,19.6-1.4c3.8-2.5,7-6.2,8.5-11c2.4-7.8-2.9-13.8-8-15.9c-3.9-1.5-10.4-1.6-14.3-0.1c-0.8,0.3-3.4,1.5-2.8,2.6
		c0.3,0.6,1.5,0.4,2.2,0.3c1.9-0.4,4.5-1,6.9-0.6c5.6,1,10.6,5,8.4,12.2c-0.3,1.1-0.8,2.1-1.4,3c-2.3,3.4-9.5,7.5-15.9,5.7
		c-3.8-1.1-6.8-3.6-8-7.4c-0.9-2.8-0.8-7.5-0.3-10.7c0.2-1.5-0.2-3.4-1.7-3.1c-2,0.5-3,6.1-3.8,8.2c-2,5.1-5,10.6-11.1,11.6
		c-2.8,0.5-4.2-2.3-4.9-4.1c-1.6-4-2.2-9-3.2-13.5c-0.6-2.3-0.7-4.9-3.1-5.4c-1.9-0.4-3.3,0.9-4.1,1.8c-2.2,2.7-3.4,6.4-5.5,9.3
		c-0.8,1.1-2.2,2.8-4.3,2.3c-3.8-0.7-4.5-6-5.8-9.2c-0.5-1.4-1.4-4.3-3.5-3.8c-3.7,0.7-5,8.3-6.6,11.5c-0.7,1.4-2.2,3.6-4.6,2.6
		c-4.3-1.8-1.8-12.7-6.7-13.8c-2.9-0.7-4.7,3.2-5.7,4.8c-2.2,3.9-3.7,8.4-6.2,12.1c-1,1.6-2.3,3.3-4.5,3.7c-2.6,0.5-3.6-2.1-4.3-3.6
		c-1.4-3.3-1.9-7.3-2.7-11.3c-0.5-2.4-0.3-4.8-2-5.9c-2.6-1.6-4.5,1.4-5.9,2.4c-3,2.3-6.3,4.2-9.7,6.1c-1,0.6-2.9,2-4.6,1.7
		c-1.9-0.4-3-1.8-4.3-2.8c-2.4-1.9-4.7-4-6.9-6.1c-1.2-1.2-2.5-3.4-4.8-3.5c-0.5,0.2-0.9,0.2-1.3,0.5c-1.5,0.9-2.2,3.1-3.1,4.6
		c-1.5,2.4-6.3,7.5-9.3,8.1c-2,0.4-3.6-1.7-4.5-2.6c-3-3-5.6-5.9-9.6-7.9c-1.5-0.8-4.4-2.1-6.3-0.9c-1.6,1-1.6,5.5-2.3,7.5
		c-1.9,5.5-4.9,11.4-9,14.7c-1.5,1.2-3.7,3.1-6.7,2.4c-5.2-1.3-6.3-7.9-7.6-13.1c-0.6-2.4-0.8-7.5-3-8c-1.8-0.4-2.1,1.4-2.4,2.7
		c-0.3,1.5,0.1,3.3-0.1,4.9c0,0.9-0.1,1.8-0.1,2.8c-0.3,1.9-0.4,3.5-1,4.9c-1.8,4.3-8.2,8.6-15.1,7.6c-1.6-0.2-2.9-0.2-4.1-0.7
		c-3.8-1.5-6-4.4-6.8-9c-0.2-1.5,0.2-3,0.5-4c1.7-4.9,6.1-6.1,11.8-7c2-0.3,7.8,0.6,8.5-0.8c0.5-1.2-1.8-2.2-2.5-2.6
		c-3-1.5-8.2-2.5-12.5-1.5C121.2,395,116.5,398.4,114.3,403.4 M20.9,424.8c-0.4,1.8-0.1,3.9,1,4.7c1.3,1,3.7,0.8,4.9-0.1
		c1.8-1.5,2.2-6.3,2.8-9c2.2-10.3,4.3-26.2,6.5-36.6c0.7-2.7,1.2-9.3,4.4-9c3.5,0.3,3.9,8.8,4.7,12.3c1.5,7.7,2.9,15.3,4.4,23
		c0.9,4,1.1,8.6,2.9,11.6c1.4,2.3,5.4,5,9.3,3.4c4.3-1.8,5.6-7.6,7.3-11.9c4.1-10.6,8.2-21.3,12.3-31.9c1.4-3.7,2.8-7.4,4.2-11.1
		c0.5-1.2,1.4-3.2,3.2-3c4.7,0.7,2.6,10.9,3.3,15.8c0.5,13.6,1,24,1.5,37.6c0.9,5.5-1.5,12,5.1,12c0.6,0,1.1,0,1.6-0.2
		c3.3-1,3.3-6.2,2.7-10.3l-0.4-6.2c-0.1-1.6-0.2-3.1-0.2-4.7c-1-15.9-1.9-28.5-2.9-44.3c-0.7-4.3,0.2-12-1.9-14.7
		c-1.1-1.5-3.5-1.8-6.1-1.8c-0.6,0-1.3,0.1-1.9,0.1c-1.5,0.2-2.8,0.3-3.8,0.9c-2.2,1.6-4,8.8-5.1,11.8c-3.7,10.3-7.5,20.7-11.2,31
		c-1.6,4-2.8,8.1-4.4,12.1c-0.7,1.8-1.5,4-3.6,4.3c-1.9,0.3-2.7-1.3-3.1-2.4c-1.4-3.5-1.5-8-2.3-12c-1.7-10.1-3.4-20.2-5-30.3
		c-0.7-3.6-0.8-9.7-3.1-11.6c-1.6-1.3-6.6-1.9-9.4-1c-4.1,1.2-4.5,9.1-5.6,13.5c-3.1,13.7-6.2,32.9-9.3,46.6
		C22.6,417.2,21.8,421,20.9,424.8"/>
	<path class="st0" d="M435.2,473.9h1.7l-0.3-4l3.3,2.3l0.9-1.5L437,469l3.7-1.7l-0.9-1.5l-3.3,2.3l0.3-4h-1.7l0.3,4l-3.3-2.3
		l-0.8,1.5l3.7,1.7l-3.7,1.7l0.8,1.5l3.3-2.3L435.2,473.9z M409.5,480.2c4.6,0,7.9-3,7.9-7.3v-0.1c0-4.2-3.4-6.8-7.7-6.8
		c-1.8,0-3.1,0.4-4.4,1l0.5-7.1h10.6v-2.3h-12.8l-0.6,10.8l1.7,1.1c1.3-0.7,2.8-1.3,4.7-1.3c3.2,0,5.5,1.9,5.5,4.7v0.1
		c0,2.8-2.2,4.9-5.4,4.9c-2.2,0-4.4-1.2-6.3-3.1l-1.7,1.8C403.6,478.7,406.4,480.2,409.5,480.2 M388,478c-3.7,0-5.8-1.9-5.8-4.2
		v-0.1c0-2.5,2.6-4.2,5.8-4.2c3.2,0,5.8,1.7,5.8,4.2v0.1C393.8,476.1,391.7,478,388,478 M388,467.5c-2.8,0-5.1-1.6-5.1-4.1v-0.1
		c0-2.2,2.2-3.8,5.1-3.8c2.9,0,5.1,1.6,5.1,3.8v0.1C393.1,465.8,390.9,467.5,388,467.5 M388,480.2c4.7,0,8.3-2.5,8.3-6.3v-0.1
		c0-2.6-1.9-4.5-4.6-5.4c2.1-0.9,3.8-2.5,3.8-5.1v-0.1c0-3.4-3.5-5.9-7.6-5.9c-4.1,0-7.6,2.4-7.6,5.9v0.1c0,2.6,1.8,4.2,3.8,5.1
		c-2.7,1-4.6,2.8-4.6,5.5v0.1C379.7,477.6,383.3,480.2,388,480.2 M365.6,469.6c-3.2,0-5.5-2-5.5-4.8v-0.1c0-2.8,2-5.2,5.3-5.2
		c3.3,0,5.6,2.2,5.6,5v0.1C371.1,467.1,369,469.6,365.6,469.6 M365,480.2c5.5,0,9.2-5,9.2-12v-0.1c0-4.4-1.1-6.9-2.8-8.6
		c-1.4-1.4-3.3-2.3-5.8-2.3c-4.7,0-8,3.3-8,7.6v0.1c0,4,3.2,6.9,7.7,6.9c3.1,0,5.1-1.6,6.3-3.5c0.1,5.7-2.6,9.7-6.6,9.7
		c-2,0-3.7-0.8-5.5-2.4l-1.5,1.9C360,479.1,362.1,480.2,365,480.2 M348,479.8h2.5v-22.4h-1.9l-5.4,1.9l0.6,2l4.2-1.3V479.8z
		 M310.9,479.8h16.2v-2.3h-13.7v-7.8h12.1v-2.3h-12.1v-7.6h13.5v-2.3h-16.1V479.8z M295.7,480.2c4,0,6.6-1.6,8.9-3.9l-1.7-1.6
		c-2.1,2-4.1,3.2-7.2,3.2c-4.9,0-8.6-4-8.6-9.2v-0.1c0-5.1,3.7-9.1,8.6-9.1c3,0,5.1,1.3,7,3.1l1.7-1.8c-2.2-2.1-4.6-3.5-8.7-3.5
		c-6.5,0-11.2,5.2-11.2,11.5v0.1C284.6,475.2,289.3,480.2,295.7,480.2 M258.6,479.8h2.4v-18.2l14.3,18.2h2v-22.2h-2.4v17.8l-14-17.8
		h-2.3V479.8z M247.6,479.8h2.5v-22.2h-2.5V479.8z M232.8,480.2c4.4,0,7.6-2.5,7.6-6.3v-0.1c0-3.4-2.3-5.2-7.2-6.3
		c-4.9-1-6-2.2-6-4.3v-0.1c0-2,1.8-3.6,4.7-3.6c2.3,0,4.3,0.7,6.4,2.4l1.5-1.9c-2.2-1.8-4.6-2.7-7.8-2.7c-4.2,0-7.3,2.6-7.3,6.1v0.1
		c0,3.6,2.3,5.3,7.5,6.4c4.7,1,5.8,2.2,5.8,4.2v0.1c0,2.2-2,3.8-4.9,3.8c-3.1,0-5.3-1-7.6-3.1l-1.6,1.8
		C226.4,479,229.3,480.2,232.8,480.2 M204.6,473.9h1.7l-0.3-4l3.3,2.3l0.8-1.5l-3.7-1.7l3.7-1.7l-0.8-1.5l-3.3,2.3l0.3-4h-1.7l0.3,4
		l-3.3-2.3l-0.9,1.5l3.7,1.7l-3.7,1.7l0.9,1.5l3.3-2.3L204.6,473.9z"/>
	<polygon class="st0" points="303.2,220.3 303.9,215.9 304.8,215.9 312.4,255.8 317.5,255.8 306.8,205 292.3,205 300.3,209.1 
		298.4,220.3 	"/>
	<polygon class="st0" points="318.5,261.7 313.9,261.7 317.2,275 321.6,275 324.8,261.7 320.3,261.7 319.7,265.8 319,265.8 	"/>
	<polygon class="st0" points="331.5,226.9 327,226.9 320.7,255.8 325.8,255.8 	"/>
	<polygon class="st0" points="297.2,226.6 289.4,270.6 278.9,275 303.6,275 294.6,270.8 302.2,226.4 	"/>
	<path class="st0" d="M381.6,234.6c0,24.5-10.4,46.8-30.9,66.2c-12.9,12.3-26,19.5-30,21.6c-4-2.1-17.1-9.3-30-21.6
		c-20.5-19.5-30.9-41.7-30.9-66.2c0-3.1,0.6-10.4,1.3-18c0.8-9.1,1.7-19.2,1.9-26.4c34-0.7,51.8-12.7,57.6-17.6
		c5.8,4.9,23.6,16.9,57.6,17.6c0.2,7.2,1.1,17.3,1.9,26.4C381,224.2,381.6,231.5,381.6,234.6 M291.4,308c0.2-0.2,0.3-0.4,0.5-0.5
		c0.2-0.2,0.4-0.3,0.6-0.5c0.1-0.1,0.2-0.1,0.3-0.2c10.9,9.5,21.2,15.4,25.6,17.8c-0.7,0.2-1.4,0.4-2.1,0.5
		c-1.3,0.2-2.6,0.1-3.9-0.3l-1.8-0.8c-0.9-0.5-1.8-1.2-2.9-2c-1-0.8-2.2-1.8-3.6-2.9c-0.4-0.3-0.8-0.7-1.2-1c-0.4-0.3-0.8-0.6-1.2-1
		c-0.4-0.3-0.8-0.7-1.2-1c-0.4-0.3-0.8-0.7-1.2-1l-1.5-1.2c-0.2-0.2-0.5-0.4-0.7-0.6c-0.2-0.2-0.4-0.4-0.7-0.6
		c-0.2-0.2-0.4-0.3-0.7-0.5c-0.2-0.2-0.5-0.4-0.7-0.6c-0.7-0.6-1.4-1.1-2.1-1.7c-0.7-0.5-1.4-1-2.2-1.4
		C291.1,308.4,291.3,308.2,291.4,308 M290.9,314.4c0.2,0.1,0.3,0.2,0.4,0.4c1.6,1.4,3.2,2.7,4.9,4.1c1.6,1.4,3.2,2.7,4.8,4
		c1.2,1,2.3,1.8,3.4,2.4c1.1,0.7,2.2,1.2,3.4,1.5c-2.6,2-5.3,2.9-8.1,2.7c-2.8-0.2-5.3-1.2-7.3-2.9c-1.8-1.6-3.2-3.5-4-6
		c-0.8-2.4-0.7-5,0.2-7.8c0.3,0.2,0.6,0.4,0.9,0.6c0.3,0.2,0.6,0.4,0.9,0.7C290.6,314.1,290.7,314.2,290.9,314.4 M323,324.6
		c4.4-2.3,14.7-8.3,25.6-17.8c0.1,0.1,0.2,0.2,0.3,0.2c0.2,0.2,0.4,0.3,0.6,0.5c0.2,0.2,0.4,0.4,0.5,0.5c0.2,0.2,0.3,0.4,0.5,0.6
		c-0.8,0.4-1.5,0.9-2.2,1.4c-0.7,0.5-1.4,1.1-2.1,1.7c-0.2,0.2-0.4,0.4-0.7,0.6c-0.2,0.2-0.5,0.4-0.7,0.5c-0.2,0.2-0.5,0.4-0.7,0.6
		c-0.2,0.2-0.4,0.4-0.7,0.6l-1.5,1.2c-0.4,0.3-0.8,0.7-1.2,1c-0.4,0.3-0.8,0.7-1.2,1c-0.4,0.3-0.8,0.7-1.2,1c-0.4,0.3-0.8,0.7-1.2,1
		c-1.4,1.1-2.5,2.1-3.6,2.9c-1,0.8-2,1.5-2.9,2l-1.8,0.8c-1.2,0.4-2.5,0.5-3.9,0.3C324.4,325,323.7,324.8,323,324.6 M333.6,326.8
		c1.1-0.4,2.2-0.9,3.4-1.5c1.1-0.6,2.3-1.5,3.4-2.4c1.6-1.4,3.2-2.7,4.8-4c1.6-1.3,3.2-2.7,4.8-4.1c0.1-0.1,0.3-0.2,0.4-0.4
		c0.2-0.1,0.3-0.3,0.4-0.4c0.3-0.2,0.6-0.4,0.9-0.7c0.3-0.2,0.6-0.4,0.9-0.6c0.9,2.8,1,5.4,0.2,7.8c-0.8,2.4-2.1,4.4-4,6
		c-2.1,1.7-4.5,2.7-7.3,2.9C338.9,329.7,336.2,328.8,333.6,326.8 M392,193.4c-0.5-2-1.5-3.5-3-4.5c-1.6-1-3.3-1.6-5.2-1.8h-1.2
		c-0.4,0-1.3,0.1-1.9,0.1c-34.2-0.2-52-12-57.8-16.7c0.7-0.8,2.3-2.5,2.4-2.7c0.2-0.2,0.4-0.4,0.6-0.6c0.9-0.7,2-1.3,3.1-1.7
		c1.1-0.4,2.2-0.2,3.3,0.4c1.1,0.7,1.9,1.6,2.4,2.8c0.5,1.2,0.4,2.3-0.3,3.5c-0.4,0.7-1,1.2-1.8,1.4c-0.8,0.2-1.5,0.2-2.1-0.1
		c-0.1,0-0.2-0.1-0.2-0.1c-0.1,0-0.1-0.1-0.2-0.1c-0.3-0.2-0.6-0.5-0.8-0.8c-0.2-0.4-0.3-0.8-0.2-1.3c0,0.1,0,0.2,0.1,0.2
		c0.1,0.1,0.1,0.2,0.2,0.2c0.1,0.1,0.1,0.2,0.2,0.2c0.1,0.1,0.2,0.1,0.2,0.2c0.3,0.2,0.6,0.2,0.9,0.1s0.5-0.3,0.7-0.6
		c0-0.1,0.1-0.1,0.1-0.2c0-0.1,0.1-0.1,0.1-0.2c0.1-0.3,0.2-0.6,0.1-1c0-0.4-0.2-0.7-0.4-1c-0.1-0.1-0.1-0.1-0.2-0.2
		c-0.1-0.1-0.1-0.1-0.2-0.2c-0.3-0.2-0.5-0.3-0.8-0.2c-0.3,0-0.6,0.1-0.8,0.3c-0.1,0-0.2,0.1-0.3,0.2c-0.1,0.1-0.2,0.2-0.3,0.3
		c-0.1,0-0.1,0.1-0.1,0.1c0,0.1-0.1,0.1-0.1,0.2c0,0.1-0.1,0.1-0.1,0.1c0,0,0,0.1-0.1,0.1c-0.2,0.4-0.3,0.8-0.3,1.2
		c-0.1,0.4,0,0.8,0.1,1.2c0.1,0.5,0.3,0.9,0.6,1.2c0.2,0.3,0.5,0.6,0.9,0.8c0,0,0,0,0.1,0c0,0,0,0,0.1,0c0.9,0.5,1.9,0.6,3.1,0.3
		c1.2-0.3,2.1-1,2.7-1.9c0.9-1.5,1.1-3,0.5-4.4c-0.6-1.5-1.6-2.6-2.9-3.4c-1.7-1-3.5-1.4-5.4-1c-1.9,0.4-3.5,1.2-4.9,2.5l-0.9,0.9
		c-0.4,0.4-0.7,0.8-1,1.3c-0.3-0.5-0.6-0.9-1-1.3l-0.9-0.9c-1.4-1.3-3.1-2.1-4.9-2.5c-1.8-0.4-3.6-0.1-5.4,1
		c-1.3,0.8-2.3,1.9-2.9,3.4c-0.6,1.5-0.4,2.9,0.5,4.4c0.6,1,1.5,1.6,2.7,1.9c1.2,0.3,2.2,0.2,3.1-0.3c0,0,0,0,0.1,0c0,0,0,0,0.1,0
		c0.4-0.2,0.6-0.5,0.9-0.8c0.3-0.3,0.4-0.7,0.6-1.2c0.1-0.4,0.1-0.8,0.1-1.2c-0.1-0.4-0.2-0.8-0.3-1.2c0,0,0-0.1-0.1-0.1
		c0,0-0.1-0.1-0.1-0.1c0-0.1-0.1-0.1-0.1-0.2c0-0.1-0.1-0.1-0.1-0.1c-0.1-0.1-0.2-0.2-0.3-0.3c-0.1-0.1-0.2-0.2-0.3-0.2
		c-0.3-0.2-0.5-0.3-0.8-0.3c-0.3,0-0.6,0.1-0.8,0.2c-0.1,0.1-0.1,0.1-0.2,0.2c-0.1,0.1-0.1,0.1-0.2,0.2c-0.3,0.3-0.4,0.7-0.4,1
		c0,0.4,0,0.7,0.1,1c0,0.1,0.1,0.1,0.1,0.2c0,0.1,0.1,0.1,0.1,0.2c0.2,0.3,0.4,0.5,0.7,0.6s0.6,0.1,0.9-0.1c0.1,0,0.1-0.1,0.2-0.2
		c0.1-0.1,0.1-0.1,0.2-0.2c0.1-0.1,0.1-0.2,0.2-0.2c0.1-0.1,0.1-0.2,0.1-0.2c0.1,0.5,0,0.9-0.2,1.3c-0.2,0.4-0.5,0.6-0.8,0.8
		c-0.1,0-0.1,0.1-0.2,0.1c-0.1,0-0.1,0.1-0.2,0.1c-0.6,0.3-1.4,0.3-2.1,0.1c-0.8-0.2-1.4-0.7-1.8-1.4c-0.7-1.2-0.8-2.3-0.3-3.5
		c0.5-1.2,1.3-2.1,2.4-2.8c1-0.6,2.1-0.8,3.3-0.4c1.1,0.4,2.2,0.9,3.1,1.7c0.2,0.2,0.4,0.4,0.6,0.6c0.2,0.2,1.7,1.9,2.4,2.7
		c-5.8,4.7-23.7,16.6-57.8,16.7c-0.6,0-1.5-0.1-1.9-0.1h-1.2c-1.9,0.2-3.7,0.7-5.2,1.8c-1.6,1.1-2.6,2.6-3,4.5
		c-0.4,1.5-0.2,3,0.4,4.5c0.6,1.4,1.8,2.4,3.5,2.8c1.1,0.3,2.2,0.1,3.2-0.5c1-0.6,1.7-1.5,2-2.5c0,0,0,0,0-0.1c0,0,0,0,0-0.1
		c0.1-0.4,0.1-0.8,0.1-1.2c-0.1-0.4-0.2-0.8-0.5-1.2c-0.2-0.3-0.5-0.6-0.8-0.9c-0.3-0.3-0.7-0.5-1.1-0.6c0,0-0.1,0-0.1,0
		c-0.1,0-0.1,0-0.2,0c-0.1,0-0.1,0-0.2-0.1c-0.1,0-0.1,0-0.2,0c-0.1,0-0.3-0.1-0.4,0c-0.1,0-0.3,0.1-0.4,0.1
		c-0.3,0.1-0.5,0.2-0.8,0.4c-0.2,0.2-0.3,0.5-0.4,0.7c0,0.1,0,0.2,0,0.3c0,0.1,0,0.2,0,0.3c0.1,0.4,0.2,0.7,0.4,1
		c0.3,0.3,0.5,0.5,0.8,0.6c0.1,0,0.1,0,0.2,0.1c0.1,0,0.1,0.1,0.2,0.1c0.3,0.1,0.6,0.1,0.9-0.1c0.3-0.1,0.5-0.4,0.5-0.7
		c0-0.1,0-0.2,0.1-0.3c0-0.1,0-0.2,0-0.3c0-0.1,0-0.2-0.1-0.3c0-0.1-0.1-0.2-0.1-0.2c0.4,0.3,0.7,0.6,0.8,1c0.1,0.4,0.1,0.8,0.1,1.1
		c0,0.1,0,0.1,0,0.2c0,0.1-0.1,0.1-0.1,0.2c-0.3,0.6-0.7,1.1-1.5,1.6c-0.7,0.4-1.4,0.5-2.2,0.3c-1.3-0.3-2.2-1.1-2.8-2.2
		c-0.5-1.2-0.6-2.4-0.3-3.6c0.3-1.2,1-2.1,2-2.6c1.1-0.6,2.2-0.9,3.4-1c0.3,0,0.6,0,0.8-0.1c0.2,0,2.2,0.1,3.3,0.1
		c-0.4,13.4-3.3,37.6-3.3,44.5c0,32.3,17.7,55.8,34.5,70.9c-0.2,0.2-0.4,0.3-0.7,0.5c-0.4,0.4-0.8,0.8-1.1,1.2
		c-0.1,0.1-0.1,0.2-0.2,0.2c-0.1,0.1-0.1,0.2-0.2,0.2c-2.9-1.2-5.8-1.6-8.8-1.2c-3,0.4-5.6,1.9-7.6,4.3c-1.6,2-2.5,4.2-2.6,6.7
		c-0.1,2.5,0.9,4.7,3.1,6.5c1.4,1.2,3.1,1.7,5.1,1.5c2-0.2,3.5-0.9,4.6-2.1c0,0,0.1-0.1,0.1-0.1c0,0,0,0,0.1-0.1
		c0.4-0.5,0.7-1.1,0.9-1.7c0.2-0.6,0.3-1.3,0.2-2.1c-0.1-0.6-0.2-1.2-0.5-1.9c-0.3-0.6-0.7-1.2-1.2-1.7c0,0-0.1-0.1-0.1-0.1
		c-0.1-0.1-0.1-0.1-0.2-0.2c-0.1-0.1-0.1-0.1-0.2-0.2c-0.1-0.1-0.2-0.1-0.3-0.1c-0.2-0.2-0.4-0.3-0.6-0.3c-0.2-0.1-0.4-0.1-0.6-0.1
		c-0.5-0.1-0.9-0.1-1.4,0c-0.5,0.1-0.8,0.4-1.1,0.8c-0.1,0.1-0.2,0.2-0.2,0.3c-0.1,0.1-0.1,0.2-0.2,0.4c-0.2,0.6-0.3,1.2-0.1,1.8
		c0.2,0.6,0.4,1.1,0.7,1.5c0.1,0.1,0.1,0.1,0.2,0.2c0.1,0.1,0.2,0.2,0.3,0.3c0.4,0.3,0.9,0.5,1.3,0.6c0.5,0,0.9-0.2,1.3-0.6
		c0.1-0.1,0.2-0.2,0.3-0.4c0.1-0.1,0.1-0.3,0.2-0.5c0.1-0.1,0.1-0.3,0.1-0.4c0-0.2,0.1-0.3,0-0.4c0.4,0.7,0.5,1.4,0.4,2
		c-0.1,0.6-0.4,1.2-0.8,1.7c-0.1,0.1-0.1,0.2-0.2,0.2c-0.1,0.1-0.2,0.2-0.3,0.2c-0.8,0.7-1.9,1.1-3.2,1.2c-1.3,0.1-2.5-0.3-3.5-1.1
		c-1.7-1.4-2.5-3.1-2.3-5.2c0.1-2,0.8-3.9,2.1-5.5c1.3-1.5,2.9-2.3,4.8-2.3c1.9,0,3.8,0.3,5.6,0.9c0.4,0.2,0.8,0.4,1.2,0.5
		c0.4,0.2,0.8,0.3,1.1,0.5c-1,2.8-1.2,5.7-0.5,8.7c0.7,3,2.2,5.4,4.6,7.4c2.9,2.4,6.1,3.5,9.6,3.4c3.5-0.1,6.7-1.4,9.4-3.9
		c1.8,0.3,3.6,0.3,5.4-0.1c1.8-0.3,3.5-0.9,5.2-1.6c1.7,0.7,3.4,1.2,5.2,1.6c1.8,0.4,3.6,0.4,5.4,0.1c2.7,2.5,5.9,3.8,9.4,3.9
		s6.8-1,9.6-3.4c2.4-2,3.9-4.4,4.6-7.4c0.7-3,0.6-5.9-0.5-8.7c0.4-0.2,0.7-0.4,1.1-0.5c0.4-0.2,0.8-0.3,1.2-0.5
		c1.8-0.7,3.7-1,5.6-0.9c1.9,0,3.5,0.8,4.8,2.3c1.3,1.6,2,3.4,2.1,5.5c0.1,2-0.7,3.8-2.3,5.2c-1,0.8-2.2,1.2-3.5,1.1
		c-1.3-0.1-2.4-0.5-3.2-1.2c-0.1-0.1-0.2-0.2-0.3-0.2c-0.1-0.1-0.1-0.2-0.2-0.2c-0.4-0.5-0.6-1-0.8-1.7c-0.1-0.7,0-1.3,0.4-2
		c0,0.1,0,0.3,0,0.4c0,0.1,0.1,0.3,0.1,0.4c0,0.2,0.1,0.4,0.2,0.5c0.1,0.1,0.2,0.3,0.3,0.4c0.4,0.4,0.8,0.6,1.3,0.6
		c0.5,0,0.9-0.2,1.3-0.6c0.1-0.1,0.2-0.2,0.3-0.3c0.1-0.1,0.1-0.2,0.2-0.2c0.4-0.4,0.6-0.9,0.7-1.5c0.1-0.6,0.1-1.2-0.1-1.8
		c-0.1-0.1-0.1-0.2-0.2-0.4c-0.1-0.1-0.2-0.2-0.2-0.3c-0.3-0.4-0.6-0.7-1.1-0.8c-0.5-0.2-0.9-0.2-1.4,0c-0.2,0-0.4,0.1-0.6,0.1
		c-0.2,0.1-0.4,0.2-0.6,0.3c-0.1,0-0.2,0.1-0.3,0.1c-0.1,0.1-0.2,0.1-0.2,0.2c-0.1,0.1-0.1,0.1-0.2,0.2c-0.1,0.1-0.1,0.1-0.1,0.1
		c-0.5,0.5-0.9,1.1-1.2,1.7c-0.3,0.6-0.5,1.3-0.5,1.9c-0.1,0.8,0,1.5,0.2,2.1c0.2,0.6,0.5,1.2,0.9,1.7c0,0,0.1,0.1,0.1,0.1
		c0,0,0,0.1,0.1,0.1c1.1,1.2,2.6,2,4.6,2.1c2,0.2,3.7-0.4,5.1-1.5c2.1-1.8,3.2-4,3.1-6.5c-0.1-2.5-1-4.8-2.6-6.7
		c-2.1-2.5-4.6-3.9-7.6-4.3c-3-0.4-5.9,0-8.8,1.2c-0.1-0.1-0.1-0.1-0.2-0.2c-0.1-0.1-0.1-0.2-0.2-0.2c-0.4-0.4-0.8-0.8-1.2-1.2
		c-0.2-0.2-0.4-0.4-0.6-0.5c16.8-15.1,34.5-38.6,34.5-70.9c0-6.9-2.9-31.1-3.3-44.5c1.1-0.1,3.1-0.1,3.3-0.1c0.3,0,0.5,0,0.8,0.1
		c1.2,0.1,2.3,0.5,3.4,1c1.1,0.6,1.7,1.4,2,2.6c0.3,1.2,0.2,2.5-0.3,3.6c-0.5,1.2-1.4,1.9-2.8,2.2c-0.8,0.2-1.5,0.1-2.2-0.3
		c-0.7-0.4-1.2-0.9-1.5-1.6c-0.1-0.1-0.1-0.2-0.1-0.2c0-0.1,0-0.1,0-0.2c-0.1-0.4-0.1-0.7,0-1.1c0.1-0.4,0.4-0.7,0.8-1
		c-0.1,0.1-0.1,0.1-0.1,0.2c0,0.1,0,0.2,0,0.3c0,0.1,0,0.2,0,0.3c0,0.1,0,0.2,0,0.3c0.1,0.3,0.3,0.6,0.6,0.7
		c0.3,0.1,0.6,0.1,0.9,0.1c0.1,0,0.2,0,0.2-0.1c0.1,0,0.1-0.1,0.2-0.1c0.3-0.1,0.6-0.3,0.8-0.6c0.2-0.3,0.4-0.6,0.4-1
		c0-0.1,0-0.2,0-0.3s0-0.2,0-0.3c-0.1-0.3-0.2-0.5-0.4-0.7s-0.5-0.3-0.8-0.4c-0.1-0.1-0.3-0.1-0.4-0.1c-0.1,0-0.3,0-0.4,0
		c-0.1,0-0.1,0-0.2,0c-0.1,0-0.1,0-0.2,0.1c-0.1,0-0.1,0-0.2,0c0,0-0.1,0-0.1,0c-0.4,0.2-0.8,0.4-1.1,0.6c-0.4,0.3-0.6,0.6-0.8,0.9
		c-0.3,0.4-0.4,0.8-0.5,1.2c-0.1,0.4-0.1,0.8,0.1,1.2c0,0,0,0.1,0,0.1c0,0,0,0,0,0.1c0.3,1,0.9,1.8,2,2.5c1,0.6,2.1,0.8,3.2,0.5
		c1.7-0.4,2.9-1.3,3.5-2.8C392.2,196.4,392.4,194.9,392,193.4"/>
	<path class="st0" d="M288.2,239.8c0,0.1,0,0.1,0,0.2c0.5,11.2,8.5,11.7,8.8,11.7h43c0.3,0,8.3-0.6,8.8-11.7c0-0.1,0-0.1,0-0.2
		c0-12.2-8.5-12.8-8.9-12.8l-43,0C296.7,227,288.2,227.6,288.2,239.8L288.2,239.8z M297,253.3c-0.1,0-9.8-0.6-10.4-13.2v-0.2l0.4,0
		l-0.5,0l0-0.8c0.4-12.9,10.2-13.6,10.3-13.6H340c0.2,0,10,0.6,10.4,13.6h0v0.6c0,0.1,0,0.1,0,0.2l-0.6,0l0.6,0.1l0,0.2
		c-0.5,12.6-10.2,13.2-10.3,13.2H297z M284.6,240.8c0,0.1,0,0.2,0,0.4c0.5,17,16.1,17.8,16.8,17.8h34.2c0.8,0,16.2-1,16.8-17.8
		c0-0.2,0-0.3,0-0.3l-0.1-1.7l0,0c-0.1-2.7-0.5-5-1.3-6.8c-0.5-1.2-1.1-2.3-1.8-3.4c-1-1.7-2.1-3.5-2.3-5.8
		c-0.2-3.5,1.7-5.5,2.7-5.8c0.6-0.2,1.2,0.1,1.8,0.3c0.2,0.1,0.5,0.2,0.6,0.2c0.2,0,0.4-0.2,0.4-0.4c0-1.2-1.3-1.3-1.5-1.3H351
		c-4.5,0-4.7,4.2-4.7,4.3l0,0.8h-55.5l0-0.8c0-0.4-0.3-4.3-4.7-4.3h-0.1c-0.2,0-1.4,0.1-1.4,1.3c0,0.2,0.2,0.4,0.4,0.4
		c0.1,0,0.4-0.1,0.6-0.2c0.5-0.2,1.2-0.5,1.8-0.3c1.1,0.3,3,2.3,2.8,5.8c-0.3,2.4-1.3,4.2-2.3,5.9c-0.6,1-1.3,2.1-1.7,3.4
		C285,234.6,284.6,237.3,284.6,240.8 M335.7,260.6h-34.3c-0.2,0-17.7-0.9-18.4-19.4l0-0.7l0,0c0-3.6,0.5-6.4,1.4-8.8
		c0.5-1.3,1.2-2.5,1.9-3.6c1-1.7,1.9-3.2,2.1-5.2c0.2-2.8-1.4-4-1.6-4.1c-0.2,0-0.5,0.1-0.7,0.2c-0.4,0.2-0.8,0.4-1.2,0.4
		c-1.1,0-1.9-0.9-1.9-1.9c0-2.2,1.9-2.9,3-2.9h0.2c4.2,0,5.8,3,6.1,5.1h52.6c0.4-2.1,1.9-5.1,6.2-5.1h0.1c1,0,3,0.7,3,2.9
		c0,1.1-0.9,1.9-1.9,1.9c-0.4,0-0.8-0.2-1.2-0.4c-0.3-0.1-0.6-0.2-0.7-0.2c-0.3,0.1-1.8,1.3-1.6,4.1c0.2,2,1.1,3.5,2.1,5.2
		c0.7,1.1,1.3,2.2,1.9,3.6c0.9,2.3,1.4,5.2,1.4,8.7v0.4l0,0.4C353.4,259.7,335.8,260.6,335.7,260.6L335.7,260.6z"/>
	<path class="st0" d="M347.9,297.4c-10.9,10.4-21.9,17-27.1,19.9c-5.3-2.9-16.3-9.6-27.1-19.9c-19.4-18.6-29.3-39.7-29.3-62.8
		c0-2.9,0.6-10.1,1.3-17.7c0.7-7.5,1.4-15.7,1.8-22.5c28.4-1.4,45.4-10.6,53.4-16.3c8,5.7,25,14.9,53.4,16.3
		c0.4,6.8,1.1,15,1.8,22.5c0.7,7.6,1.3,14.7,1.3,17.7C377.2,257.7,367.3,278.9,347.9,297.4 M378.7,234.6c0-3-0.6-10.2-1.3-17.8
		c-0.7-8-1.5-16.8-1.8-23.8c-30-1.1-47.3-11.1-54.8-16.7c-7.4,5.6-24.8,15.5-54.8,16.7c-0.3,7-1.1,15.8-1.8,23.8
		c-0.7,7.6-1.3,14.8-1.3,17.8c0,23.6,10,45.1,29.8,64c11.5,10.9,23.1,17.8,28.1,20.5c5-2.7,16.6-9.6,28.1-20.5
		C368.6,279.7,378.7,258.2,378.7,234.6"/>
	<path class="st0" d="M331.6,205h14.5l-8.1,4.1l7.4,41.4c0,0-0.6,0.5-2,1.3c-1.5,0.7-2.8,0.8-2.8,0.8l-6.2-36.7h-0.9l-0.9,4
		l-4.3-0.1L331.6,205z"/>
	<path class="st0" d="M346.5,256.2l2.5,14.4l10.5,4.4h-24.7l9-4.2l-2-12.1c0,0,1.2-0.4,2.4-1.1C345.4,256.9,346.5,256.2,346.5,256.2
		"/>
</g>
</svg>
